<svg width="24" height="25" viewBox="0 0 24 25" fill="none" xmlns="http://www.w3.org/2000/svg">
<g id="Icons">
<g id="Union">
<mask id="path-1-inside-1_2554_446" fill="white">
<path fill-rule="evenodd" clip-rule="evenodd" d="M21.4517 18.3816C22.435 16.7345 23 14.8088 23 12.7511C23 6.67597 18.0751 1.7511 12 1.7511C5.92487 1.7511 1 6.67597 1 12.7511C1 18.8262 5.92487 23.7511 12 23.7511C14.062 23.7511 15.9915 23.1837 17.6409 22.1966L22.8478 23.5918L21.4517 18.3816Z"/>
</mask>
<path d="M21.4517 18.3816L19.9062 17.4589C19.6568 17.8766 19.5871 18.3775 19.7131 18.8474L21.4517 18.3816ZM17.6409 22.1966L18.1068 20.4579C17.6362 20.3318 17.1346 20.4019 16.7165 20.6521L17.6409 22.1966ZM22.8478 23.5918L22.3819 25.3304C23.0031 25.4969 23.6659 25.3193 24.1206 24.8646C24.5753 24.4098 24.7529 23.7471 24.5865 23.1259L22.8478 23.5918ZM21.2 12.7511C21.2 14.475 20.7276 16.083 19.9062 17.4589L22.9973 19.3042C24.1425 17.3859 24.8 15.1426 24.8 12.7511H21.2ZM12 3.5511C17.081 3.5511 21.2 7.67008 21.2 12.7511H24.8C24.8 5.68185 19.0692 -0.0489013 12 -0.0489013V3.5511ZM2.8 12.7511C2.8 7.67008 6.91898 3.5511 12 3.5511V-0.0489013C4.93076 -0.0489013 -0.8 5.68185 -0.8 12.7511H2.8ZM12 21.9511C6.91898 21.9511 2.8 17.8321 2.8 12.7511H-0.8C-0.8 19.8203 4.93076 25.5511 12 25.5511V21.9511ZM16.7165 20.6521C15.3387 21.4767 13.7275 21.9511 12 21.9511V25.5511C14.3965 25.5511 16.6443 24.8908 18.5653 23.7411L16.7165 20.6521ZM17.175 23.9353L22.3819 25.3304L23.3137 21.8531L18.1068 20.4579L17.175 23.9353ZM24.5865 23.1259L23.1904 17.9157L19.7131 18.8474L21.1091 24.0576L24.5865 23.1259Z" fill="black" mask="url(#path-1-inside-1_2554_446)"/>
</g>
</g>
</svg>
