<svg width="22" height="23" viewBox="0 0 22 23" fill="none" xmlns="http://www.w3.org/2000/svg">
<g id="Group 4">
<path id="Rectangle 1436" d="M1.88104 7.33138C1.91728 6.75164 2.39803 6.29999 2.9789 6.29999H19.0211C19.602 6.29999 20.0827 6.75164 20.119 7.33138L20.8362 18.8066C20.9477 20.5913 19.5303 22.1 17.7422 22.1H4.2578C2.46966 22.1 1.0523 20.5913 1.16384 18.8066L1.88104 7.33138Z" stroke="black" stroke-width="1.8"/>
<path id="Ellipse 71" d="M14.3 9.90002C14.3 11.7226 12.8225 13.2 11 13.2C9.17741 13.2 7.69995 11.7226 7.69995 9.90002" stroke="black" stroke-width="1.8" stroke-linecap="round"/>
<path id="Ellipse 72" d="M14.3 5.95V4.3C14.3 2.47746 12.8225 0.999997 11 0.999997C9.17741 0.999997 7.69995 2.47746 7.69995 4.3V5.95" stroke="black" stroke-width="1.8" stroke-linecap="round"/>
</g>
</svg>
