<svg width="16" height="17" viewBox="0 0 16 17" fill="none" xmlns="http://www.w3.org/2000/svg">
<g id="Verified badge" clip-path="url(#clip0_2850_397)">
<path id="Star 2" d="M5.56209 1.48038C5.67561 1.1537 6.07855 1.03815 6.34794 1.25504L7.57054 2.23934C7.75871 2.39084 8.02828 2.38613 8.21105 2.22816L9.39855 1.20179C9.66021 0.975636 10.0669 1.07705 10.1918 1.39956L10.7584 2.8633C10.8456 3.08858 11.0815 3.21929 11.3187 3.17387L12.8603 2.87876C13.2 2.81373 13.5015 3.10492 13.4484 3.44665L13.2073 4.99761C13.1701 5.23632 13.309 5.46742 13.5372 5.54672L15.0198 6.06194C15.3465 6.17546 15.462 6.5784 15.2452 6.84779L14.2609 8.07039C14.1094 8.25856 14.1141 8.52813 14.272 8.7109L15.2984 9.8984C15.5246 10.1601 15.4231 10.5668 15.1006 10.6916L13.6369 11.2583C13.4116 11.3455 13.2809 11.5813 13.3263 11.8186L13.6214 13.3602C13.6865 13.6998 13.3953 14.0014 13.0535 13.9482L11.5026 13.7071C11.2639 13.67 11.0328 13.8089 10.9535 14.037L10.4383 15.5197C10.3247 15.8463 9.92179 15.9619 9.65241 15.745L8.42981 14.7607C8.24164 14.6092 7.97206 14.6139 7.78929 14.7719L6.60179 15.7983C6.34014 16.0244 5.93341 15.923 5.80856 15.6005L5.24191 14.1367C5.1547 13.9115 4.91889 13.7807 4.68162 13.8262L3.14002 14.1213C2.80035 14.1863 2.49882 13.8951 2.55195 13.5534L2.79308 12.0024C2.8302 11.7637 2.69134 11.5326 2.46315 11.4533L0.980527 10.9381C0.653847 10.8246 0.538307 10.4216 0.755189 10.1523L1.7395 8.92966C1.89099 8.74148 1.88628 8.47191 1.72832 8.28914L0.70194 7.10164C0.475788 6.83999 0.577197 6.43326 0.899716 6.3084L2.36345 5.74176C2.58873 5.65454 2.71945 5.41873 2.67402 5.18147L2.37891 3.63987C2.31388 3.3002 2.60507 2.99867 2.94681 3.0518L4.49776 3.29293C4.73647 3.33005 4.96757 3.19118 5.04687 2.96299L5.56209 1.48038Z" fill="#1FA1FF"/>
<path id="Vector 16" d="M5 8.5L7 10.5L11 6.5" stroke="white"/>
</g>
<defs>
<clipPath id="clip0_2850_397">
<rect width="16" height="16" fill="white" transform="translate(0 0.5)"/>
</clipPath>
</defs>
</svg>
