<svg width="16" height="17" viewBox="0 0 16 17" fill="none" xmlns="http://www.w3.org/2000/svg">
<g id="Verified badge">
<g clip-path="url(#clip0_2554_92)">
<path id="Star 2" d="M5.56194 1.48036C5.67546 1.15368 6.0784 1.03814 6.34779 1.25502L7.57039 2.23933C7.75856 2.39083 8.02813 2.38612 8.2109 2.22815L9.3984 1.20178C9.66005 0.975625 10.0668 1.07703 10.1916 1.39955L10.7583 2.86329C10.8455 3.08857 11.0813 3.21928 11.3186 3.17386L12.8602 2.87874C13.1998 2.81372 13.5014 3.1049 13.4482 3.44664L13.2071 4.9976C13.17 5.2363 13.3089 5.46741 13.537 5.54671L15.0197 6.06193C15.3463 6.17545 15.4619 6.57839 15.245 6.84778L14.2607 8.07038C14.1092 8.25855 14.1139 8.52812 14.2719 8.71089L15.2983 9.89839C15.5244 10.16 15.423 10.5668 15.1005 10.6916L13.6367 11.2583C13.4115 11.3455 13.2807 11.5813 13.3262 11.8186L13.6213 13.3602C13.6863 13.6998 13.3951 14.0014 13.0534 13.9482L11.5024 13.7071C11.2637 13.67 11.0326 13.8088 10.9533 14.037L10.4381 15.5197C10.3246 15.8463 9.92164 15.9619 9.65225 15.745L8.42965 14.7607C8.24148 14.6092 7.97191 14.6139 7.78914 14.7719L6.60164 15.7982C6.33999 16.0244 5.93326 15.923 5.8084 15.6005L5.24176 14.1367C5.15454 13.9114 4.91873 13.7807 4.68147 13.8262L3.13987 14.1213C2.8002 14.1863 2.49866 13.8951 2.5518 13.5534L2.79293 12.0024C2.83005 11.7637 2.69118 11.5326 2.46299 11.4533L0.980375 10.9381C0.653695 10.8246 0.538154 10.4216 0.755036 10.1522L1.73934 8.92964C1.89084 8.74147 1.88613 8.4719 1.72816 8.28913L0.701787 7.10163C0.475636 6.83998 0.577045 6.43325 0.899564 6.30839L2.3633 5.74175C2.58858 5.65453 2.71929 5.41872 2.67387 5.18145L2.37876 3.63986C2.31373 3.30019 2.60492 2.99865 2.94665 3.05179L4.49761 3.29292C4.73632 3.33003 4.96742 3.19117 5.04672 2.96298L5.56194 1.48036Z" fill="#1FA1FF"/>
<path id="Vector 16" d="M5 8.5L7 10.5L11 6.5" stroke="white"/>
</g>
</g>
<defs>
<clipPath id="clip0_2554_92">
<rect y="0.5" width="16" height="16" fill="white"/>
</clipPath>
</defs>
</svg>
